<?xml version="1.0" encoding="UTF-8"?>
<svg xmlns="http://www.w3.org/2000/svg" version="1.1" viewBox="0 0 500 500">
  <!-- Generator: Adobe Illustrator 29.7.1, SVG Export Plug-In . SVG Version: 2.1.1 Build 8)  -->
  <defs>
    <style>
      .st0 {
        fill: #9d2af9;
      }

      .st1 {
        fill: #efc46a;
      }

      .st2, .st3 {
        fill: #fff;
      }

      .st4 {
        fill: #312a5f;
      }

      .st3 {
        stroke: #fff;
        stroke-miterlimit: 10;
        stroke-width: 1.78px;
      }

      .st5 {
        opacity: .1;
      }

      .st6 {
        fill: #c52a87;
      }
    </style>
  </defs>
  <!-- <g id="BACKGROUND">
    <rect class="st2" width="500" height="500"/>
  </g> -->
  <g id="OBJECTS">
    <g>
      <path class="st0" d="M114.5,223.47l4.5-1.36c.53-.16,1.02.36.82.88l-1.65,4.4c-.08.21-.05.44.08.62l2.68,3.86c.32.46-.03,1.08-.58,1.05l-4.69-.21c-.22-.01-.43.09-.56.26l-2.84,3.74c-.34.44-1.03.31-1.18-.23l-1.25-4.53c-.06-.21-.22-.38-.43-.45l-4.44-1.54c-.52-.18-.61-.89-.15-1.19l3.92-2.58c.18-.12.3-.33.3-.55l.09-4.7c.01-.55.65-.86,1.09-.51l3.67,2.93c.17.14.4.18.61.12Z"/>
      <path class="st0" d="M437.41,253.05l3.04.11c.36.01.55.43.32.71l-1.93,2.35c-.09.11-.12.26-.08.39l.84,2.92c.1.35-.24.65-.58.52l-2.83-1.11c-.13-.05-.28-.04-.4.04l-2.52,1.7c-.3.2-.7-.03-.67-.39l.19-3.04c0-.14-.05-.28-.17-.37l-2.4-1.87c-.28-.22-.19-.67.16-.76l2.94-.76c.14-.04.25-.14.3-.27l1.04-2.86c.12-.34.58-.39.77-.08l1.63,2.56c.08.12.21.2.35.2Z"/>
      <path class="st1" d="M138.4,191.67l3.46,1.23c.41.14.47.7.11.93l-3.08,2c-.14.09-.23.25-.24.42l-.1,3.67c-.01.43-.51.67-.85.39l-2.85-2.31c-.13-.11-.31-.14-.48-.09l-3.52,1.04c-.42.12-.79-.28-.64-.69l1.31-3.43c.06-.16.04-.34-.06-.48l-2.08-3.03c-.25-.36.03-.84.46-.82l3.67.19c.17,0,.34-.07.44-.2l2.23-2.91c.26-.34.81-.24.92.18l.95,3.55c.04.17.17.3.33.36Z"/>
      <path class="st1" d="M416.76,232.1l3.67-.11c.43-.01.69.48.44.83l-2.14,2.98c-.1.14-.13.32-.07.48l1.24,3.46c.15.41-.24.81-.65.67l-3.5-1.12c-.16-.05-.34-.02-.48.08l-2.9,2.25c-.34.27-.84.02-.84-.41l-.02-3.67c0-.17-.09-.33-.23-.43l-3.03-2.07c-.36-.24-.28-.79.13-.93l3.49-1.15c.16-.05.29-.18.34-.35l1.03-3.52c.12-.42.67-.51.92-.16l2.17,2.96c.1.14.27.22.44.21Z"/>
      <g>
        <path class="st0" d="M248.97,151.4c15.8-2.49,31.73-5.27,47.77-8.34,1.31-.25,1.6-1.57.6-2.62-.75-.79-1.5-1.59-2.23-2.39,0,0,0,0,0,0-2.88-3.16-5.63-6.43-8.24-9.8-2.33-3.02-4.56-6.11-6.66-9.28-2.35-3.54-4.56-7.17-6.63-10.88-1.84-3.32-3.57-6.71-5.17-10.16-1.79-3.85-3.42-7.77-4.9-11.75-1.32-3.57-2.51-7.19-3.57-10.86-.89-3.06-1.68-6.14-2.38-9.26-.44-2-2.58-1.87-3.14.21-.58,2.19-1.14,4.37-1.66,6.55-.75,3.12-1.45,6.23-2.08,9.33-.71,3.46-1.34,6.9-1.9,10.32-.5,3.06-.95,6.11-1.33,9.15-.43,3.39-.8,6.76-1.09,10.1-.26,2.99-.46,5.97-.61,8.92-.16,3.3-.26,6.57-.28,9.82-.02,2.9.02,5.78.11,8.64.11,3.4.3,6.76.56,10.09.1,1.3,1.55,2.43,2.83,2.22Z"/>
        <g>
          <path class="st1" d="M245.58,139.09c13.32,2.46,27.11,4.41,41.31,5.82,3.28-.61,6.56-1.22,9.85-1.85,1.31-.25,1.6-1.57.6-2.62-.75-.79-1.5-1.59-2.23-2.39,0,0,0,0,0,0-17.19-1.75-33.78-4.31-49.64-7.59-.02,2.9.02,5.78.11,8.64Z"/>
          <path class="st1" d="M245.75,120.63c13.18,3.06,26.91,5.62,41.12,7.61-2.33-3.02-4.56-6.11-6.66-9.28-11.67-2.04-22.97-4.48-33.85-7.26-.26,2.99-.46,5.97-.61,8.92Z"/>
          <path class="st1" d="M247.44,101.61c8.45,2.38,17.17,4.55,26.14,6.48-1.84-3.32-3.57-6.71-5.17-10.16-6.71-1.69-13.26-3.52-19.64-5.47-.5,3.06-.95,6.11-1.33,9.15Z"/>
          <path class="st1" d="M250.68,82.14c4.2,1.4,8.48,2.74,12.84,4.03-1.32-3.57-2.51-7.19-3.57-10.86-2.42-.81-4.82-1.65-7.18-2.5-.75,3.12-1.45,6.23-2.08,9.33Z"/>
        </g>
      </g>
      <g>
        <path class="st1" d="M408.32,195.33c-6.98-2.09-14.05-4.12-21.19-6.1-.58-.16-.72-.97-.29-1.6.33-.47.65-.95.97-1.42,0,0,0,0,0,0,1.25-1.87,2.43-3.76,3.55-5.66,1-1.7,1.95-3.42,2.84-5.14,1-1.92,1.93-3.86,2.79-5.8.77-1.74,1.49-3.49,2.15-5.23.74-1.95,1.41-3.91,2-5.86.53-1.75,1.01-3.51,1.43-5.26.35-1.46.66-2.92.94-4.37.17-.93,1.42-.7,1.82.34.42,1.1.81,2.21,1.18,3.33.53,1.59,1.02,3.2,1.45,4.81.49,1.8.92,3.6,1.28,5.42.33,1.62.61,3.25.85,4.88.26,1.82.47,3.65.62,5.48.13,1.64.21,3.27.25,4.91.04,1.83.02,3.65-.06,5.47-.07,1.63-.19,3.25-.36,4.87-.2,1.93-.47,3.85-.8,5.76-.13.75-.87,1.34-1.43,1.17Z"/>
        <g>
          <path class="st4" d="M410.56,188.4c-6.34.71-12.68,1.4-19.04,2.05-1.46-.41-2.92-.82-4.38-1.22-.58-.16-.72-.97-.29-1.6.33-.47.65-.95.97-1.42,0,0,0,0,0,0,7.71-.85,15.41-1.74,23.1-2.68-.07,1.63-.19,3.25-.36,4.87Z"/>
          <path class="st4" d="M410.97,178.06c-6.52.86-13.06,1.69-19.61,2.5,1-1.7,1.95-3.42,2.84-5.14,5.52-.73,11.02-1.49,16.52-2.27.13,1.64.21,3.27.25,4.91Z"/>
          <path class="st4" d="M410.11,167.67c-4.36.66-8.74,1.31-13.12,1.94.77-1.74,1.49-3.49,2.15-5.23,3.38-.52,6.75-1.05,10.12-1.59.33,1.62.61,3.25.85,4.88Z"/>
          <path class="st4" d="M407.97,157.37c-2.27.39-4.55.77-6.83,1.15.53-1.75,1.01-3.51,1.43-5.26,1.31-.23,2.63-.46,3.94-.7.53,1.59,1.02,3.2,1.45,4.81Z"/>
        </g>
      </g>
      <g>
        <path class="st6" d="M179.48,165.11c-7.62,3.64-15.48,7.07-23.53,10.27-.66.26-1.17-.22-1.03-.94.11-.55.21-1.1.3-1.65,0,0,0,0,0,0,.37-2.16.65-4.33.84-6.51.17-1.95.27-3.91.3-5.87.03-2.19-.02-4.39-.16-6.58-.13-1.97-.33-3.93-.6-5.89-.3-2.19-.69-4.37-1.16-6.54-.43-1.94-.92-3.87-1.49-5.79-.47-1.6-.99-3.19-1.56-4.77-.37-1.01.56-1.62,1.37-.89.85.77,1.69,1.56,2.52,2.34,1.19,1.13,2.35,2.26,3.49,3.41,1.27,1.28,2.51,2.58,3.71,3.89,1.08,1.17,2.14,2.36,3.16,3.55,1.15,1.33,2.27,2.68,3.35,4.04.97,1.22,1.92,2.44,2.83,3.67,1.03,1.38,2.02,2.76,2.98,4.16.86,1.25,1.69,2.5,2.49,3.77.96,1.5,1.87,3.02,2.75,4.53.34.6.05,1.51-.57,1.81Z"/>
        <g>
          <path class="st1" d="M177.3,158.77c-5.04,5.08-10.53,9.97-16.42,14.61-1.63.67-3.28,1.34-4.93,2-.66.26-1.17-.22-1.03-.94.11-.55.21-1.1.3-1.65,0,0,0,0,0,0,7.15-5.6,13.71-11.56,19.59-17.78.86,1.25,1.69,2.5,2.49,3.77Z"/>
          <path class="st1" d="M171.83,150.85c-4.77,5.34-10.04,10.5-15.77,15.43.17-1.95.27-3.91.3-5.87,4.56-4.27,8.78-8.69,12.63-13.22.97,1.22,1.92,2.44,2.83,3.67Z"/>
          <path class="st1" d="M165.64,143.14c-2.91,3.63-6.07,7.2-9.44,10.68-.13-1.97-.33-3.93-.6-5.89,2.43-2.74,4.73-5.52,6.87-8.34,1.08,1.17,2.14,2.36,3.16,3.55Z"/>
          <path class="st1" d="M158.77,135.69c-1.37,1.91-2.82,3.82-4.32,5.7-.43-1.94-.92-3.87-1.49-5.79.8-1.1,1.58-2.21,2.33-3.32,1.19,1.13,2.35,2.26,3.49,3.41Z"/>
        </g>
      </g>
      <path class="st0" d="M238.69,393.23c0,3.51-2.84,6.35-6.35,6.35s-6.35-2.84-6.35-6.35,2.84-6.35,6.35-6.35,6.35,2.84,6.35,6.35Z"/>
      <path class="st1" d="M270.83,378.09c0,1.5-1.21,2.71-2.71,2.71s-2.71-1.21-2.71-2.71,1.21-2.71,2.71-2.71,2.71,1.21,2.71,2.71Z"/>
      <circle class="st0" cx="414.49" cy="352.06" r="2.71"/>
      <circle class="st0" cx="342.26" cy="152.56" r="2.71"/>
      <circle class="st1" cx="204.31" cy="158.52" r="2.71"/>
      <path class="st0" d="M163,376.99c-4.47,2.74-9.42,8.51-7.93,14.17,1.25,4.75,6.51,7.9,11.25,6.48,2.32-.69,4.3-2.28,5.62-4.29,1.16-1.77,2.43-5,1.08-6.96-1.37-2.01-4.34-1.18-6.03-.14-2.02,1.24-3.48,3.19-4.41,5.34-.99,2.26-1.46,4.72-1.58,7.17-.13,2.68.12,5.59,2.06,7.64,1.76,1.84,4.38,2.57,6.82,2.9,2.96.4,6.08.29,8.78-1.1,2.29-1.19,4.11-3.46,4.47-6.05.37-2.65-.81-4.76-3.64-4.68-4.96.13-9.18,4.41-10.02,9.16-.96,5.42,2.37,11.49,7.81,12.98,5.12,1.41,11.1-1.98,12.13-7.27.22-1.12-1.5-1.6-1.71-.47-.71,3.67-4.22,6.25-7.91,6.29-3.96.04-7.19-3.1-8.28-6.74-1.17-3.87.24-8.08,3.48-10.51.73-.54,1.54-.99,2.4-1.28.86-.29,2.36-.69,3.22-.27,1.01.5.92,2.06.69,3.02-.26,1.09-.86,2.08-1.64,2.89-3.06,3.17-8.7,2.97-12.57,1.58-2.17-.78-3.7-2.27-4.15-4.58-.39-1.99-.22-4.2.14-6.19.64-3.5,2.33-7.44,5.88-8.84.69-.27,1.85-.55,2.48.02.78.72.18,2.56-.13,3.41-.66,1.84-1.99,3.44-3.65,4.45-3.94,2.4-9.23.46-10.73-3.94-1.69-4.97,3.07-10.26,6.97-12.65.97-.6.08-2.14-.9-1.54h0Z"/>
      <path class="st1" d="M172.18,81.44c-3.76,3.67-7.2,10.29-4.61,15.49,2.1,4.21,7.61,6.16,11.86,4.18,2.22-1.03,3.95-2.98,4.9-5.22.84-1.96,1.4-4.95.24-6.9-1.36-2.3-4.37-1.2-5.98.15-1.84,1.55-2.97,3.8-3.49,6.13-.54,2.46-.5,5.01-.1,7.49.41,2.57,1.19,5.34,3.33,7,2.11,1.63,4.95,1.86,7.52,1.65,2.84-.24,5.75-.93,8.06-2.68,2.04-1.55,3.47-3.97,3.51-6.58.04-2.41-1.2-4.98-3.95-4.57-4.87.73-8.18,5.66-8.42,10.33-.29,5.64,4.18,11.17,9.83,11.83,5.56.66,11.05-4.1,10.88-9.76-.04-1.14-1.81-1.15-1.78,0,.12,3.92-3.1,7.37-6.92,7.97-4.02.62-7.82-2.2-9.42-5.74-1.63-3.62-.71-8.02,2.13-10.78,1.04-1.01,4.35-3.3,5.41-1.41,1.05,1.87.25,4.39-.97,5.96-2.57,3.31-8.21,4.33-12.13,3.53-4.6-.94-5.53-5.94-5.61-9.98-.07-3.46.9-8.31,4.51-9.84,1.06-.45,2.02-.3,2.29.93.22,1,.13,2.12-.1,3.11-.44,1.88-1.49,3.62-3,4.84-3.4,2.73-8.65,1.64-10.84-2.11-2.61-4.47.86-10.59,4.1-13.76.82-.8-.44-2.06-1.26-1.26h0Z"/>
      <path class="st1" d="M259.93,430.64c3.62,3.8,10.21,7.34,15.43,4.79,4.23-2.06,6.26-7.53,4.32-11.81-1.01-2.23-2.93-3.99-5.16-4.96-1.95-.85-4.93-1.46-6.9-.32-2.31,1.35-1.25,4.36.09,5.98,1.53,1.86,3.76,3.02,6.08,3.56,2.45.58,5.01.56,7.49.19,2.57-.38,5.35-1.12,7.04-3.25,1.66-2.09,1.92-4.93,1.74-7.5-.2-2.84-.86-5.77-2.58-8.09-1.53-2.06-3.93-3.52-6.54-3.59-2.41-.07-4.99,1.15-4.6,3.9.68,4.88,5.55,8.24,10.22,8.54,5.63.36,11.22-4.04,11.95-9.68.71-5.56-3.96-11.09-9.63-10.99-1.14.02-1.15,1.8,0,1.78,3.95-.07,7.4,3.27,7.88,7.14.49,3.99-2.36,7.7-5.89,9.23-3.65,1.58-8.03.59-10.75-2.28-1.01-1.07-3.27-4.46-1.26-5.45,1.91-.94,4.32-.18,5.89,1.08,3.27,2.62,4.22,8.27,3.36,12.18-1.01,4.58-6.02,5.44-10.06,5.47-3.46.02-8.3-1.02-9.77-4.64-1.1-2.72,2.38-2.54,4.09-2.12,1.88.46,3.6,1.54,4.8,3.07,2.68,3.45,1.52,8.67-2.27,10.81-4.51,2.55-10.58-1.01-13.7-4.29-.79-.83-2.05.43-1.26,1.26h0Z"/>
      <path class="st0" d="M344.88,375.73c-1.7.89-3.55,1.92-4.43,3.72-.7,1.43-.75,3.33.34,4.59,1.25,1.45,3.49,1.58,5.07,2.55,1.82,1.12,3.58,4.04,1.25,5.66-1.55,1.08-3.77.91-5.52,1.45-1.63.5-3.2,1.36-4.3,2.68-2.03,2.44-1.88,6.6,1.15,8.19,1.01.53,1.91-1,.9-1.54-1.45-.76-1.95-2.51-1.5-4.03.52-1.76,2.22-2.9,3.87-3.47,2.7-.94,6.54-.49,7.91-3.6,1.39-3.17-1.2-6.16-3.92-7.41-1.62-.75-4.35-1-3.95-3.39.34-1.99,2.42-3.01,4.03-3.85,1.01-.53.12-2.07-.9-1.54h0Z"/>
      <path class="st0" d="M310.14,65.08c-1.7.89-3.55,1.92-4.43,3.72-.7,1.43-.75,3.33.34,4.59,1.25,1.45,3.49,1.58,5.07,2.55,1.82,1.12,3.58,4.04,1.25,5.66-1.55,1.08-3.77.91-5.52,1.45-1.63.5-3.2,1.36-4.3,2.68-2.03,2.44-1.88,6.6,1.15,8.19,1.01.53,1.91-1,.9-1.54-1.45-.76-1.95-2.51-1.5-4.03.52-1.76,2.22-2.9,3.87-3.47,2.7-.94,6.54-.49,7.91-3.6,1.39-3.17-1.2-6.16-3.92-7.41-1.62-.75-4.35-1-3.95-3.39.34-1.99,2.42-3.01,4.03-3.85,1.01-.53.12-2.07-.9-1.54h0Z"/>
      <path class="st1" d="M340.02,140.61c-.18-3.95,4.62-4.76,7.58-3.97,3.19.85,5.99,3.76,5.5,7.26-.2,1.4-1.13,2.9-2.74,2.61-1.5-.27-2.45-1.64-2.67-3.06-.27-1.71.26-3.49.86-5.08.55-1.44,1.31-2.85,2.36-3.98,2.04-2.17,6.19-3.37,8.31-.57.68.9,2.23.02,1.54-.9-2.47-3.27-7.19-3.1-10.18-.65-1.65,1.35-2.77,3.22-3.56,5.17-.85,2.08-1.48,4.44-1.01,6.7.83,3.95,6.31,6,8.33,1.76,1.96-4.11-.97-8.81-4.8-10.47-2.24-.97-4.98-1.24-7.3-.39-2.34.86-4.11,2.99-4,5.56.05,1.14,1.83,1.15,1.78,0h0Z"/>
      <path class="st0" d="M420.51,309.8c-.18-3.95,4.62-4.76,7.58-3.97,3.19.85,5.99,3.76,5.5,7.26-.2,1.4-1.13,2.9-2.74,2.61-1.5-.27-2.45-1.64-2.67-3.06-.27-1.71.26-3.49.86-5.08.55-1.44,1.31-2.85,2.36-3.98,2.04-2.17,6.19-3.37,8.31-.57.68.9,2.23.02,1.54-.9-2.47-3.27-7.19-3.1-10.18-.65-1.65,1.35-2.77,3.22-3.56,5.17-.85,2.08-1.48,4.44-1.01,6.7.83,3.95,6.31,6,8.33,1.76,1.96-4.11-.97-8.81-4.8-10.47-2.24-.97-4.98-1.24-7.3-.39-2.34.86-4.11,2.99-4,5.56.05,1.14,1.83,1.15,1.78,0h0Z"/>
      <path class="st0" d="M70.27,226.1c3.61,1.59,2.33,6.21.28,8.55-2.13,2.44-5.81,3.68-8.76,1.89-1.21-.74-2.35-2.26-1.43-3.66.84-1.27,2.52-1.57,3.89-1.18,2.94.85,5.7,4.1,6.77,6.87,1.15,2.97.23,7.12-3.33,7.8-1.12.21-.65,1.93.47,1.71,4.1-.78,5.87-5.48,4.83-9.19-.6-2.14-1.91-4.04-3.43-5.63-1.54-1.61-3.43-3.14-5.7-3.47-3.84-.57-7.35,3.43-4.62,6.84,2.9,3.61,8.42,2.94,11.61.19,3.39-2.92,5.55-9.96.3-12.28-1.04-.46-1.94,1.07-.9,1.54h0Z"/>
    </g>
    <g>
      <g>
        <g class="st5">
          <g>
            <path d="M161.43,236.4c7.69-17,26.23-25.74,43.51-30.15-4.22,7.41-7.6,14.78-9.15,20.72-5.15,19.62,3.43,21.79,5.35,18.26,1.92-3.53,19.87-25.22,20.98-25.02,1.11.2-1.31,14.93,4.64,15.74,3.83.52,7.49-2.68,9.62-5.02.42.87,1.06,1.57,1.99,2.05,4.47,2.29,11.26-5.21,16.3-12.12-1.06,5.02,1.09,7.65,3.17,8.03,2.1.39,10.52-10.93,17.56-21.34-6.68,13-13.12,28.51-14.48,33.6-1.16,4.34,2.57,7.67,3.98,7.62,1.02-.04,4.88-14.22,10.1-26.32,1.7,1.56,5.3,2.91,10.71,1.71,9.05-2.02,20.45-18.56,17.73-28.65-2.72-10.09-19.98,6.66-19.98,6.66,0,0,4.34-9.39,5.3-11.46.96-2.06-1.2-2.44-3.08,0-.98-.45-24.57,31.43-25.63,30.82-1.06-.61,1.72-10.8,2.12-13.72,0-5.25-5.09-8.65-12.36-3.93-5.65,3.67-13.81,16.14-14.03,23.74-1.32,2.12-3.85,5.36-6.8,4.81-4.34-.81.4-18.16-3.43-18.87-3.83-.71-21.49,18.76-24.82,26.11,1.53-8.98,8.95-23.39,16.61-35.94,7.07-1.11,13.31-1.55,17.65-1.67,16.5-.45,7.51-30.11.53-30.11-5.63,0-16.68,12.38-25.85,26.55-6.02.6-12.55,1.66-19.17,3.56-21.64,6.2-36.17,23.61-35.03,31.7,1.13,8.1,5.22,6.73,5.98,2.65ZM281.53,210.32c8.37-11.2,18.56-16.24,18.56-12.21s-10.68,21.12-23.92,21.65c1.68-3.63,3.48-6.94,5.35-9.45ZM256.36,206.39c2.12-.04,2.65,2,2.74,3.61-3.37,3.88-15.34,17.42-17.37,16.47-2.37-1.11,8.93-19.98,14.63-20.08ZM235.93,178.85c2.72,1.01,6.05,17.45,1.51,18.56-2.21.54-8.27.19-16.4.39,7.14-11.06,13.67-19.41,14.89-18.96Z"/>
            <path d="M294.9,246.38c1.02-.04,4.88-14.22,10.1-26.32,1.7,1.56,5.3,2.91,10.71,1.71,9.05-2.02,20.45-18.56,17.73-28.65-2.72-10.09-19.98,6.66-19.98,6.66,0,0,4.34-9.39,5.3-11.46.96-2.06-1.2-2.44-3.08,0-8.53,10.05-22.67,42.61-24.77,50.44-1.16,4.34,2.57,7.67,3.98,7.62ZM311.55,207.94c8.37-11.2,18.56-16.24,18.56-12.21s-10.68,21.12-23.92,21.65c1.68-3.63,3.48-6.94,5.35-9.45Z"/>
            <path d="M351.27,204.62s-1.71,5.56-4.27,11.47c-9.02,2.5-16.42,6.26-18.91,11.13-4.2,8.22,9.13,15.27,19.57.91,1.87-2.57,3.69-5.67,5.42-9.03,2.85-.35,5.98-.58,9.41-.65,24.21-.5,32.69,4.64,32.99,9.08.3,4.44,8.68-5.25-3.83-12.01-6.61-3.57-22.06-3.85-36.18-1.33,6.73-14.64,11.67-31.94,12.27-34.99.81-4.14-3.97-5.8-7.87,3.73-6.03,14.73-16.24,25.83-18.46,25.63-2.22-.2,3.63-17.5,6.31-20.93,1.6-2.06.96-3.37.18-4.09-.65-.61-1.66-.67-2.41-.18-5.91,3.82-14.45,27.14-10.03,32.47,4.77,5.75,15.81-11.2,15.81-11.2ZM335.16,229.82c-4.97-1.74-1.35-6.44,9.74-9.24-2.9,5.67-6.41,10.4-9.74,9.24Z"/>
            <path d="M111.08,332.96s64.77-46.31,66.43-66.89c1.66-20.58-57.66-.76-86.11,20.88-28.45,21.64-10.59,26.79.15,23.46,10.74-3.33,18.26-7.87,17.45-8.93-1.91-2.51-23.1,5.55-25.12,2.72-1.34-1.88,32.65-24.08,58.63-34.58-13.23,14.53-29.47,42.29-40.49,63.5-4.42,3.68-8.24,6.84-11.08,9.22-5.6,4.69-.15,9.38.76,9.08.11-.04.72-.35,1.74-.87-2.27,4.97-3.71,8.57-4.01,10.1-1.66,8.32,3.63,12.71,5.9,9.84.97-5.58,4.43-14.7,9.34-25.42,12.47-5.8,31.2-13.47,43.63-13.47,19.82,0-11.88,48.05-64.46,57.2-8.33,1.45-10.75-4.99-11.81-4.54-1.06.45-3.78,11.65,15.59,13.01,19.37,1.36,78.14-34.17,72.34-64.01-2.12-10.9-27.25-11.28-48.88-.3ZM151.27,266.46c9.02-2.8,16.11-3.34,18.83.22,3.65,4.78-27.69,32.47-53.24,54.04,11.02-20.54,24.19-41.81,34.42-54.26Z"/>
            <path d="M197.49,253.76c-8.17-.2-16.43,33.89-14.53,37.33,3.23,5.85,6.36-12.01,10.39-20.58,4.04-8.58,12.31-16.55,4.14-16.75Z"/>
            <path d="M422.73,260.85c-4.24-1.72-4.74.3-6.15,4.44-1.41,4.14-21.59,32.59-25.52,34.4-1.11.61,5.76-27.32,9.28-31.44-.83-2.38-5.25-1.05-5.25-1.05-2.34,1.19-5.56,7.21-8.06,14.33-3.36,5.16-13.45,20.14-16.48,18.62-2.09-1.05-1.28-10.88-.28-15.46,0,0,4.95-12.73-6.81-12.73-5.16,0-12.43,7.59-17.7,16.63-1.44,2.15-15.79,23.37-20.87,24.44-5.35,1.13,11.39-59.56,17.18-69.29-.74-3.41-5.98-2.65-14.44,14.89-5.1,10.58-8.49,18.05-11.32,24.31-.7-1.59-2.58-3.13-8.18-2.43-6.42.81-15.89,16.62-19.26,30.34-3.15,3.68-9.57,10.54-12.98,9.88-4.64-.91.1-18.87-6.46-18.16-6.56.71-16.04,18.06-16.04,18.06-2.32-4.94,15.84-61.51,24.82-74.45,1.34-1.66.97-4.17-1.7-3.73-6.4.27-22.06,38.4-27.88,66.35-5.34,9.42-15.08,25.89-17.91,25.86-5.17-.04,6.61-39.7,16.6-64.98,3.72-1.21,7.79-2.42,12.02-3.57.42-.12.74-.47.8-.9.12-.82.23-1.68.32-2.55.11-.95-.76-1.73-1.69-1.52-2.99.69-5.96,1.43-8.86,2.22,2.33-5.45,4.46-9.77,6.1-12.14,1.34-1.66.97-4.17-1.7-3.73-2.76.12-7.34,7.51-12.11,18.11-12.09,3.75-21.7,7.97-23.96,11.04-4.24,5.75,1.81,6.05,11.8,0,2.01-1.22,5.21-2.65,9.22-4.16-4.24,10.41-8.38,22.7-11.3,34.05-2.72,5.72-14.43,29.79-19.1,30.79-5.3,1.14,10.19-33.61,4.92-41.69-2.03-3.11-4.01-5.2-5.63-6.98,2.5-7.62,4.76-11.83,3.28-15.04-3.07-6.65-10.67-3.25-13.77,5.37-1.81,5.04,1.26,10.06,4.51,14.14-8.73,17.71-23.77,45.89-25.14,45.96-1.92.1,2.93-21.29,7.16-31.07,4.24-9.79,3.63-11.3.15-10.64-7.42,1.06-23.61,42.52-12.11,51.15,7.8,5.85,24.07-27.44,33.04-51.67,1.08,1.27,1.95,2.37,2.37,3.24,1.89,3.93-12.33,41.99-3.25,46.84,5.65,3.01,14.45-12.65,20.31-24.92-1.66,10.95-1.12,19.02,3.18,20.3,4.85,1.44,12.8-10.05,18.72-20.15-.62,7.83.28,13.5,3.48,15.11,1.24.63,2.32.1,2.93-4.04.61-4.14,12.41-21.29,13.22-21.19.81.1.3,13.42,8.68,15.29,4.69,1.05,9.47-3.93,12.77-8.52-.22,5.34,1.09,9.61,4.71,11.35,13.56,6.52,24.98-42.51,29.42-47.26,0,0-12.76,36.73.37,39.76,4.3.99,12.24-9.86,17.11-17.25-.86,5.66.26,10.31,4.59,12.12,5.19,2.17,14.8-9.79,19.38-17.97-.21,3.94.95,7.5,5.64,8.39,4.43.84,10.39-6.45,14.81-13.09-.86,6.05-.48,11.28,2.14,13.38,7.57,6.05,22.09-18.06,25.83-26.23,0,0-18.18,66.01-41.41,66.01s-23.76-18.46-25.5-17.93c-1.74.53-5.22,14.6,8.02,23.76,13.24,9.16,32.36,7.77,48.91-21.89,16.55-29.66,25.32-69.41,21.09-71.13ZM205.71,285.73c-1.11-1.66-1.66-3.41-1.34-5.97.83-6.58,4.62-4.84,3.93-.38-.12.77-1.08,3.08-2.6,6.35ZM311.08,294.3c-4.34,9.09-13.89,29.62-16.91,28.88-3.02-.74,10.21-36.97,16.16-38.04,2.63-.47,3.79.43,4.27,1.59-1.2,2.63-2.34,5.1-3.52,7.57ZM366.06,287.17c-3.58,5.36-15.88,23.43-18.89,22.83-3.53-.71,11.8-31.78,16.34-32.08,3.46-.23,3.52,4.46,2.55,9.25Z"/>
            <path d="M276.99,258.66c-.64.83-1.31,1.75-1.99,2.7-.27.38.07.9.53.8,9.38-2.01,18.57-3.47,25.92-3.81-4.85-1.87-13.06-1.9-22.51-.79-.77.09-1.48.49-1.95,1.1Z"/>
            <path d="M276.69,341.46c-30.57.5-61.64,18.97-57.71,34.81,44.59-39.55,89.39-23.41,89.39-23.41-18.56-1.61-31.07,12.51-30.97,14.53.1,2.02,8.58-5.85,17.96-7.87,9.38-2.02,20.48,1.61,22.7-4.84,2.22-6.46-10.79-13.72-41.36-13.22Z"/>
            <path d="M267.11,173.59c15.15,7.42,46.77-4.76,47.73-11.08,0-3.78-1.82-5.45-4.54-5.9-2.11,6.05-21.72,18.4-42.57,15.09-1.14-.18-1.66,1.38-.62,1.89Z"/>
          </g>
        </g>
        <g>
          <path class="st3" d="M158.43,233.4c7.69-17,26.23-25.74,43.51-30.15-4.22,7.41-7.6,14.78-9.15,20.72-5.15,19.62,3.43,21.79,5.35,18.26,1.92-3.53,19.87-25.22,20.98-25.02,1.11.2-1.31,14.93,4.64,15.74,3.83.52,7.49-2.68,9.62-5.02.42.87,1.06,1.57,1.99,2.05,4.47,2.29,11.26-5.21,16.3-12.12-1.06,5.02,1.09,7.65,3.17,8.03,2.1.39,10.52-10.93,17.56-21.34-6.68,13-13.12,28.51-14.48,33.6-1.16,4.34,2.57,7.67,3.98,7.62,1.02-.04,4.88-14.22,10.1-26.32,1.7,1.56,5.3,2.91,10.71,1.71,9.05-2.02,20.45-18.56,17.73-28.65-2.72-10.09-19.98,6.66-19.98,6.66,0,0,4.34-9.39,5.3-11.46.96-2.06-1.2-2.44-3.08,0-.98-.45-24.57,31.43-25.63,30.82-1.06-.61,1.72-10.8,2.12-13.72,0-5.25-5.09-8.65-12.36-3.93-5.65,3.67-13.81,16.14-14.03,23.74-1.32,2.12-3.85,5.36-6.8,4.81-4.34-.81.4-18.16-3.43-18.87-3.83-.71-21.49,18.77-24.82,26.11,1.53-8.98,8.95-23.39,16.61-35.94,7.07-1.11,13.31-1.55,17.65-1.67,16.5-.45,7.51-30.11.53-30.11-5.63,0-16.68,12.38-25.85,26.55-6.02.6-12.55,1.66-19.17,3.56-21.64,6.2-36.17,23.61-35.03,31.7s5.22,6.73,5.98,2.65ZM278.54,207.32c8.37-11.2,18.56-16.24,18.56-12.21s-10.68,21.12-23.92,21.65c1.68-3.63,3.48-6.94,5.35-9.45ZM253.36,203.39c2.12-.04,2.65,2,2.74,3.61-3.37,3.88-15.34,17.42-17.37,16.47-2.37-1.11,8.93-19.98,14.63-20.08ZM232.93,175.85c2.72,1.01,6.05,17.45,1.51,18.56-2.21.54-8.27.19-16.4.39,7.14-11.06,13.67-19.41,14.89-18.96Z"/>
          <path class="st3" d="M291.9,243.38c1.02-.04,4.88-14.22,10.1-26.32,1.7,1.56,5.3,2.91,10.71,1.71,9.05-2.02,20.45-18.56,17.73-28.65-2.72-10.09-19.98,6.66-19.98,6.66,0,0,4.34-9.39,5.3-11.46s-1.2-2.44-3.08,0c-8.53,10.05-22.67,42.61-24.77,50.44-1.16,4.34,2.57,7.67,3.99,7.62ZM308.55,204.94c8.37-11.2,18.56-16.24,18.56-12.21s-10.68,21.12-23.92,21.65c1.68-3.63,3.48-6.94,5.35-9.45Z"/>
          <path class="st3" d="M348.27,201.62s-1.71,5.56-4.27,11.47c-9.02,2.5-16.42,6.26-18.91,11.13-4.2,8.22,9.13,15.27,19.57.91,1.87-2.57,3.69-5.67,5.42-9.03,2.85-.35,5.98-.58,9.41-.65,24.21-.5,32.69,4.64,32.99,9.08.3,4.44,8.68-5.25-3.83-12.01-6.61-3.57-22.06-3.85-36.18-1.33,6.73-14.64,11.67-31.94,12.27-34.99.81-4.14-3.97-5.8-7.87,3.73-6.03,14.73-16.24,25.83-18.46,25.63-2.22-.2,3.63-17.5,6.31-20.93,1.6-2.06.96-3.37.18-4.09-.65-.61-1.66-.67-2.41-.18-5.91,3.82-14.45,27.14-10.03,32.47,4.77,5.75,15.81-11.2,15.81-11.2ZM332.16,226.82c-4.97-1.74-1.35-6.44,9.74-9.24-2.9,5.67-6.41,10.4-9.74,9.24Z"/>
          <path class="st3" d="M108.08,329.96s64.77-46.31,66.43-66.89c1.66-20.58-57.66-.76-86.11,20.88-28.45,21.64-10.59,26.79.15,23.46,10.74-3.33,18.26-7.87,17.45-8.93-1.91-2.51-23.1,5.55-25.12,2.72-1.34-1.88,32.65-24.08,58.63-34.58-13.23,14.53-29.47,42.29-40.49,63.5-4.42,3.68-8.24,6.84-11.08,9.22-5.6,4.69-.15,9.38.76,9.08.11-.04.72-.35,1.74-.87-2.27,4.97-3.71,8.57-4.01,10.1-1.66,8.32,3.63,12.71,5.9,9.84.97-5.58,4.43-14.7,9.34-25.42,12.47-5.8,31.2-13.47,43.63-13.47,19.82,0-11.88,48.05-64.46,57.2-8.33,1.45-10.75-4.99-11.81-4.54s-3.78,11.65,15.59,13.01c19.37,1.36,78.14-34.17,72.34-64.01-2.12-10.9-27.25-11.28-48.88-.3ZM148.27,263.46c9.02-2.8,16.11-3.34,18.83.22,3.65,4.78-27.69,32.47-53.24,54.04,11.02-20.54,24.19-41.81,34.42-54.26Z"/>
          <path class="st3" d="M194.49,250.76c-8.17-.2-16.43,33.89-14.53,37.33,3.23,5.85,6.36-12.01,10.39-20.58,4.04-8.58,12.31-16.55,4.14-16.75Z"/>
          <path class="st3" d="M419.74,257.85c-4.24-1.72-4.74.3-6.15,4.44-1.41,4.14-21.59,32.59-25.52,34.4-1.11.61,5.76-27.32,9.28-31.44-.83-2.38-5.25-1.05-5.25-1.05-2.34,1.19-5.56,7.21-8.06,14.33-3.36,5.16-13.45,20.14-16.48,18.62-2.09-1.05-1.28-10.88-.28-15.46,0,0,4.95-12.73-6.81-12.73-5.16,0-12.43,7.59-17.7,16.63-1.44,2.15-15.79,23.37-20.87,24.44-5.35,1.13,11.39-59.56,17.18-69.29-.74-3.41-5.98-2.65-14.44,14.89-5.1,10.58-8.49,18.05-11.32,24.31-.7-1.59-2.58-3.13-8.18-2.43-6.42.81-15.89,16.62-19.26,30.34-3.15,3.68-9.57,10.54-12.98,9.88-4.64-.91.1-18.87-6.46-18.16-6.56.71-16.04,18.06-16.04,18.06-2.32-4.94,15.84-61.51,24.82-74.46,1.34-1.66.97-4.17-1.7-3.73-6.4.27-22.06,38.4-27.88,66.35-5.34,9.42-15.08,25.89-17.91,25.86-5.17-.04,6.61-39.7,16.6-64.98,3.72-1.21,7.79-2.42,12.02-3.57.42-.12.74-.47.8-.9.12-.82.23-1.68.32-2.55.11-.95-.76-1.73-1.69-1.52-2.99.69-5.96,1.43-8.86,2.22,2.33-5.45,4.46-9.77,6.1-12.14,1.34-1.66.97-4.17-1.7-3.73-2.76.11-7.34,7.51-12.11,18.11-12.09,3.75-21.7,7.97-23.96,11.04-4.24,5.75,1.81,6.05,11.8,0,2.01-1.22,5.21-2.65,9.22-4.16-4.24,10.41-8.38,22.7-11.3,34.05-2.72,5.72-14.43,29.79-19.1,30.79-5.3,1.13,10.19-33.61,4.92-41.69-2.03-3.11-4.01-5.21-5.63-6.98,2.5-7.62,4.76-11.83,3.28-15.04-3.07-6.65-10.67-3.25-13.77,5.37-1.81,5.04,1.26,10.06,4.51,14.14-8.73,17.71-23.77,45.89-25.14,45.96-1.92.1,2.93-21.29,7.16-31.07,4.24-9.79,3.63-11.3.15-10.64-7.42,1.06-23.61,42.52-12.11,51.15,7.79,5.85,24.07-27.44,33.04-51.67,1.08,1.27,1.95,2.37,2.37,3.24,1.89,3.93-12.33,41.99-3.25,46.84,5.65,3.01,14.45-12.65,20.31-24.92-1.66,10.95-1.12,19.02,3.18,20.3,4.85,1.44,12.8-10.05,18.72-20.15-.62,7.83.28,13.5,3.48,15.11,1.24.63,2.32.1,2.93-4.04.61-4.14,12.41-21.29,13.22-21.19s.3,13.42,8.68,15.29c4.69,1.05,9.47-3.93,12.77-8.52-.22,5.34,1.09,9.61,4.71,11.35,13.56,6.52,24.98-42.51,29.42-47.26,0,0-12.76,36.73.37,39.76,4.3.99,12.24-9.86,17.11-17.25-.86,5.66.26,10.31,4.59,12.12,5.19,2.17,14.8-9.79,19.38-17.97-.21,3.94.95,7.5,5.64,8.39,4.43.84,10.39-6.45,14.81-13.09-.86,6.05-.48,11.28,2.14,13.38,7.57,6.05,22.09-18.06,25.83-26.23,0,0-18.18,66.01-41.41,66.01s-23.76-18.46-25.5-17.93c-1.74.53-5.22,14.6,8.02,23.76,13.24,9.16,32.36,7.77,48.91-21.89,16.55-29.66,25.32-69.41,21.09-71.13ZM202.71,282.74c-1.11-1.66-1.66-3.41-1.34-5.97.83-6.58,4.62-4.84,3.93-.38-.12.77-1.08,3.08-2.6,6.35ZM308.09,291.3c-4.34,9.09-13.89,29.62-16.91,28.88-3.02-.74,10.21-36.97,16.16-38.04,2.63-.47,3.79.43,4.27,1.59-1.2,2.63-2.34,5.1-3.52,7.57ZM363.06,284.17c-3.58,5.36-15.88,23.43-18.89,22.83-3.53-.71,11.8-31.78,16.34-32.08,3.46-.23,3.52,4.46,2.55,9.25Z"/>
          <path class="st3" d="M273.99,255.66c-.64.83-1.31,1.75-1.99,2.7-.27.38.07.9.53.8,9.38-2.01,18.57-3.47,25.92-3.81-4.85-1.87-13.06-1.9-22.51-.79-.77.09-1.48.49-1.95,1.1Z"/>
          <path class="st3" d="M273.69,338.46c-30.57.5-61.64,18.97-57.71,34.81,44.59-39.55,89.39-23.41,89.39-23.41-18.56-1.61-31.07,12.51-30.97,14.53s8.58-5.85,17.96-7.87c9.38-2.02,20.48,1.61,22.7-4.84,2.22-6.46-10.79-13.72-41.36-13.22Z"/>
          <path class="st3" d="M264.11,170.59c15.15,7.42,46.77-4.76,47.73-11.08,0-3.78-1.82-5.45-4.54-5.9-2.11,6.05-21.72,18.4-42.57,15.09-1.14-.18-1.66,1.38-.62,1.89Z"/>
        </g>
      </g>
      <g>
        <path class="st4" d="M157.35,232.33c7.69-17,26.23-25.74,43.51-30.15-4.22,7.41-7.6,14.78-9.15,20.72-5.15,19.62,3.43,21.79,5.35,18.26,1.92-3.53,19.87-25.22,20.98-25.02,1.11.2-1.31,14.93,4.64,15.74,3.83.52,7.49-2.68,9.62-5.02.42.87,1.06,1.57,1.99,2.05,4.47,2.29,11.26-5.21,16.3-12.12-1.06,5.02,1.09,7.65,3.17,8.03,2.1.39,10.52-10.93,17.56-21.34-6.68,13-13.12,28.51-14.48,33.6-1.16,4.34,2.57,7.67,3.99,7.62,1.02-.04,4.88-14.22,10.1-26.32,1.7,1.56,5.3,2.91,10.71,1.71,9.05-2.02,20.45-18.56,17.73-28.65-2.72-10.09-19.98,6.66-19.98,6.66,0,0,4.34-9.39,5.3-11.46.96-2.06-1.2-2.44-3.08,0-.98-.45-24.57,31.43-25.63,30.82-1.06-.61,1.72-10.79,2.12-13.72,0-5.25-5.09-8.65-12.36-3.93-5.65,3.67-13.81,16.14-14.03,23.74-1.32,2.12-3.85,5.36-6.8,4.81-4.34-.81.4-18.16-3.43-18.87-3.83-.71-21.49,18.77-24.82,26.11,1.53-8.98,8.95-23.39,16.61-35.94,7.07-1.11,13.31-1.55,17.65-1.67,16.5-.45,7.51-30.11.53-30.11-5.63,0-16.68,12.38-25.85,26.55-6.02.6-12.55,1.66-19.17,3.56-21.64,6.2-36.17,23.61-35.03,31.7,1.13,8.1,5.22,6.73,5.98,2.65ZM277.46,206.25c8.37-11.2,18.56-16.24,18.56-12.21s-10.68,21.12-23.92,21.65c1.68-3.63,3.48-6.94,5.35-9.45ZM252.28,202.31c2.12-.04,2.65,2,2.74,3.61-3.37,3.88-15.34,17.42-17.37,16.47-2.37-1.11,8.93-19.98,14.63-20.08ZM231.85,174.77c2.72,1.01,6.05,17.45,1.51,18.56-2.21.54-8.27.19-16.4.39,7.14-11.06,13.67-19.41,14.89-18.96Z"/>
        <path class="st4" d="M290.82,242.3c1.02-.04,4.88-14.22,10.1-26.32,1.7,1.56,5.3,2.91,10.71,1.71,9.05-2.02,20.45-18.56,17.73-28.65-2.72-10.09-19.98,6.66-19.98,6.66,0,0,4.34-9.39,5.3-11.46.96-2.06-1.2-2.44-3.08,0-8.53,10.05-22.67,42.61-24.77,50.44-1.16,4.34,2.57,7.67,3.98,7.62ZM307.47,203.86c8.37-11.2,18.56-16.24,18.56-12.21s-10.68,21.12-23.92,21.65c1.68-3.63,3.48-6.94,5.35-9.45Z"/>
        <path class="st4" d="M347.19,200.55s-1.71,5.56-4.27,11.47c-9.02,2.5-16.42,6.26-18.91,11.13-4.2,8.22,9.13,15.27,19.57.91,1.87-2.57,3.69-5.67,5.42-9.03,2.85-.35,5.98-.58,9.41-.65,24.21-.5,32.69,4.64,32.99,9.08.3,4.44,8.68-5.25-3.83-12.01-6.61-3.57-22.06-3.85-36.18-1.33,6.73-14.64,11.67-31.94,12.27-34.99.81-4.14-3.97-5.8-7.87,3.73-6.03,14.73-16.24,25.83-18.46,25.63-2.22-.2,3.63-17.5,6.31-20.93,1.6-2.06.96-3.37.18-4.09-.65-.61-1.66-.67-2.41-.18-5.91,3.82-14.45,27.14-10.03,32.47,4.77,5.75,15.81-11.2,15.81-11.2ZM331.08,225.74c-4.97-1.74-1.35-6.44,9.74-9.24-2.9,5.67-6.41,10.4-9.74,9.24Z"/>
        <path class="st4" d="M107,328.88s64.77-46.31,66.43-66.89c1.66-20.58-57.66-.76-86.11,20.88-28.45,21.64-10.59,26.79.15,23.46,10.74-3.33,18.26-7.87,17.45-8.93-1.91-2.51-23.1,5.55-25.12,2.72-1.34-1.88,32.65-24.08,58.63-34.58-13.23,14.53-29.47,42.29-40.49,63.5-4.42,3.68-8.24,6.84-11.08,9.22-5.6,4.69-.15,9.38.76,9.08.11-.04.72-.35,1.74-.87-2.27,4.97-3.71,8.57-4.01,10.1-1.66,8.32,3.63,12.71,5.9,9.84.97-5.58,4.43-14.7,9.34-25.42,12.47-5.8,31.2-13.47,43.63-13.47,19.82,0-11.88,48.05-64.46,57.2-8.33,1.45-10.75-4.99-11.81-4.54-1.06.45-3.78,11.65,15.59,13.01,19.37,1.36,78.14-34.17,72.34-64.01-2.12-10.9-27.25-11.28-48.88-.3ZM147.2,262.38c9.02-2.8,16.11-3.34,18.83.22,3.65,4.78-27.69,32.47-53.24,54.04,11.02-20.54,24.19-41.81,34.42-54.26Z"/>
        <path class="st4" d="M193.41,249.68c-8.17-.2-16.43,33.89-14.53,37.33,3.23,5.85,6.36-12.01,10.39-20.58,4.04-8.58,12.31-16.55,4.14-16.75Z"/>
        <path class="st4" d="M418.66,256.77c-4.24-1.72-4.74.3-6.15,4.44-1.41,4.14-21.59,32.59-25.52,34.4-1.11.61,5.76-27.32,9.28-31.44-.83-2.38-5.25-1.05-5.25-1.05-2.34,1.19-5.56,7.21-8.06,14.33-3.36,5.16-13.45,20.14-16.48,18.62-2.09-1.05-1.28-10.88-.28-15.46,0,0,4.95-12.73-6.81-12.73-5.16,0-12.43,7.59-17.7,16.63-1.44,2.15-15.79,23.37-20.87,24.44-5.35,1.13,11.39-59.56,17.18-69.29-.74-3.41-5.98-2.65-14.44,14.89-5.1,10.58-8.49,18.05-11.32,24.31-.7-1.59-2.58-3.13-8.18-2.43-6.42.81-15.89,16.62-19.26,30.34-3.15,3.68-9.57,10.54-12.98,9.88-4.64-.91.1-18.87-6.46-18.16-6.56.71-16.04,18.06-16.04,18.06-2.32-4.94,15.84-61.51,24.82-74.46,1.34-1.66.97-4.17-1.7-3.73-6.4.27-22.06,38.4-27.88,66.35-5.34,9.42-15.08,25.89-17.91,25.86-5.17-.04,6.61-39.7,16.6-64.98,3.72-1.21,7.79-2.42,12.02-3.57.42-.12.74-.47.8-.9.12-.82.23-1.68.32-2.55.11-.95-.76-1.73-1.69-1.52-2.99.69-5.96,1.43-8.86,2.22,2.33-5.45,4.46-9.77,6.1-12.14,1.34-1.66.97-4.17-1.7-3.73-2.76.12-7.34,7.51-12.11,18.11-12.09,3.75-21.7,7.97-23.97,11.04-4.24,5.75,1.81,6.05,11.8,0,2.01-1.22,5.21-2.65,9.22-4.16-4.24,10.41-8.38,22.7-11.3,34.05-2.72,5.72-14.43,29.79-19.1,30.79-5.3,1.13,10.19-33.61,4.92-41.69-2.03-3.11-4.01-5.21-5.63-6.98,2.5-7.62,4.76-11.83,3.28-15.04-3.07-6.65-10.67-3.25-13.77,5.37-1.81,5.04,1.26,10.06,4.51,14.14-8.73,17.71-23.77,45.89-25.14,45.96-1.92.1,2.93-21.29,7.16-31.07,4.24-9.79,3.63-11.3.15-10.64-7.42,1.06-23.61,42.52-12.11,51.15,7.79,5.85,24.07-27.44,33.04-51.67,1.08,1.27,1.95,2.37,2.37,3.24,1.89,3.93-12.33,41.99-3.25,46.84,5.65,3.01,14.45-12.65,20.31-24.92-1.66,10.95-1.12,19.02,3.18,20.3,4.85,1.44,12.8-10.05,18.72-20.15-.62,7.83.28,13.5,3.48,15.11,1.24.63,2.32.1,2.93-4.04s12.41-21.29,13.22-21.19c.81.1.3,13.42,8.68,15.29,4.69,1.05,9.47-3.93,12.77-8.52-.22,5.34,1.09,9.61,4.71,11.35,13.56,6.52,24.98-42.51,29.42-47.26,0,0-12.76,36.73.37,39.76,4.3.99,12.24-9.86,17.11-17.25-.86,5.66.26,10.31,4.59,12.12,5.19,2.17,14.8-9.79,19.38-17.97-.21,3.94.95,7.5,5.64,8.39,4.43.84,10.39-6.45,14.81-13.09-.86,6.05-.48,11.28,2.14,13.38,7.57,6.05,22.09-18.06,25.83-26.23,0,0-18.18,66.01-41.41,66.01s-23.76-18.46-25.5-17.93c-1.74.53-5.22,14.6,8.02,23.76,13.24,9.16,32.36,7.77,48.91-21.89,16.55-29.66,25.32-69.41,21.09-71.13ZM201.63,281.66c-1.11-1.66-1.66-3.41-1.34-5.97.83-6.58,4.62-4.84,3.93-.38-.12.77-1.08,3.08-2.6,6.35ZM307.01,290.22c-4.34,9.09-13.89,29.62-16.91,28.88-3.02-.74,10.21-36.97,16.16-38.04,2.63-.47,3.79.43,4.27,1.59-1.2,2.63-2.34,5.1-3.52,7.57ZM361.99,283.09c-3.58,5.36-15.88,23.43-18.89,22.83-3.53-.71,11.8-31.78,16.34-32.08,3.46-.23,3.52,4.46,2.55,9.25Z"/>
        <path class="st4" d="M272.91,254.58c-.64.83-1.31,1.75-1.99,2.7-.27.38.07.9.53.8,9.38-2.01,18.57-3.47,25.92-3.81-4.85-1.87-13.06-1.9-22.51-.79-.77.09-1.48.49-1.95,1.1Z"/>
        <path class="st6" d="M272.61,337.38c-30.57.5-61.64,18.97-57.71,34.81,44.59-39.55,89.39-23.41,89.39-23.41-18.56-1.61-31.07,12.51-30.97,14.53.1,2.02,8.58-5.85,17.96-7.87,9.38-2.02,20.48,1.61,22.7-4.84s-10.79-13.72-41.36-13.22Z"/>
        <path class="st6" d="M263.03,169.51c15.15,7.42,46.77-4.76,47.73-11.08,0-3.78-1.82-5.45-4.54-5.9-2.11,6.05-21.72,18.4-42.57,15.09-1.14-.18-1.66,1.38-.62,1.89Z"/>
      </g>
    </g>
  </g>
</svg>